<svg width="15" height="15" viewBox="0 0 15 15" fill="none" xmlns="http://www.w3.org/2000/svg">
<path d="M3.5701 5.14014H0.610107V14.7201H3.5701V5.14014Z" fill="white"/>
<path d="M2.07007 3.8901C3.04007 3.8901 3.82007 3.1001 3.82007 2.1201C3.82007 1.1401 3.04007 0.350098 2.07007 0.350098C1.10007 0.350098 0.320068 1.1401 0.320068 2.1201C0.320068 3.1001 1.10007 3.8901 2.07007 3.8901Z" fill="white"/>
<path d="M8.3101 9.6901C8.3101 8.3401 8.9301 7.5401 10.1201 7.5401C11.2101 7.5401 11.7301 8.3101 11.7301 9.6901V14.7201H14.6801V8.6601C14.6801 6.0901 13.2301 4.8501 11.2001 4.8501C9.1701 4.8501 8.3101 6.4301 8.3101 6.4301V5.1401H5.47009V14.7201H8.3101V9.6901Z" fill="white"/>
</svg>
