<svg width="18" height="18" viewBox="0 0 18 18" fill="none" xmlns="http://www.w3.org/2000/svg">
<path d="M1.22002 9.35008C1.22002 13.7601 4.79003 17.3301 9.20003 17.3301C9.71003 17.3301 10.21 17.2801 10.7 17.1901C11.4 17.6101 12.22 17.8601 13.1 17.8601C15.67 17.8601 17.76 15.7701 17.76 13.2001C17.76 12.3001 17.5 11.4601 17.06 10.7401C17.14 10.2901 17.18 9.82008 17.18 9.35008C17.18 4.94008 13.61 1.37008 9.20003 1.37008C8.70003 1.37008 8.21003 1.42008 7.73003 1.51008C7.03003 1.08008 6.20003 0.830078 5.31003 0.830078C2.74003 0.830078 0.650024 2.91008 0.650024 5.49008C0.650024 6.39008 0.900027 7.22008 1.34003 7.93008C1.26003 8.39008 1.21002 8.86008 1.21002 9.35008H1.22002ZM9.28003 3.68008C11.85 3.83008 13.36 4.96008 13.51 6.02008C13.58 6.71008 13.12 7.25008 12.33 7.25008C11.17 7.25008 11.05 5.70008 9.04002 5.70008C8.14002 5.70008 7.37003 6.08008 7.37003 6.89008C7.37003 8.59008 13.79 7.60008 13.79 11.3601C13.79 13.5201 12.06 14.9401 9.48003 14.9401C7.21003 14.9401 4.92002 13.9101 4.94002 12.1401C4.94002 11.6001 5.34003 11.1101 5.87003 11.1101C7.21003 11.1101 7.20002 13.1001 9.33002 13.1001C10.82 13.1001 11.33 12.2801 11.33 11.7201C11.33 9.67008 4.87003 10.9301 4.87003 7.07008C4.87003 4.98008 6.59003 3.54008 9.28003 3.70008V3.68008Z" fill="white"/>
</svg>
