<svg width="16" height="14" viewBox="0 0 16 14" fill="none" xmlns="http://www.w3.org/2000/svg">
<path d="M0.520012 11.7898C1.91001 12.6798 3.55001 13.1998 5.32001 13.1998C11.13 13.1998 14.42 8.2898 14.22 3.8898C14.83 3.4498 15.36 2.89981 15.78 2.2698C15.22 2.5198 14.61 2.6898 13.98 2.7598C14.63 2.3698 15.12 1.75981 15.36 1.02981C14.75 1.38981 14.08 1.64981 13.37 1.78981C12.8 1.17981 11.98 0.799805 11.08 0.799805C9.06001 0.799805 7.57001 2.6898 8.03001 4.6398C5.43001 4.5098 3.12001 3.25981 1.58001 1.36981C0.760009 2.77981 1.15001 4.6198 2.55001 5.5498C2.04001 5.5298 1.55 5.38981 1.13 5.15981C1.1 6.60981 2.14001 7.9698 3.64001 8.2698C3.20001 8.3898 2.72001 8.4198 2.23001 8.3198C2.63001 9.5598 3.78001 10.4698 5.15001 10.4898C3.83001 11.5198 2.18001 11.9798 0.51001 11.7898H0.520012Z" fill="white"/>
</svg>
