<svg width="20" height="20" viewBox="0 0 20 20" fill="none" xmlns="http://www.w3.org/2000/svg">
<path fill-rule="evenodd" clip-rule="evenodd" d="M19.2201 9.55976C19.0901 4.53976 14.9601 0.509766 9.87005 0.509766C4.78005 0.509766 0.750054 4.44976 0.530054 9.38976C0.530054 9.52977 0.530054 9.65977 0.530054 9.79977C0.530054 11.5598 1.02005 13.1898 1.87005 14.5898L0.180054 19.5698L5.36005 17.9198C6.70005 18.6598 8.24005 19.0798 9.88005 19.0798C15.0501 19.0798 19.2301 14.9198 19.2301 9.79977C19.2301 9.71977 19.2301 9.63976 19.2301 9.55976H19.2201ZM9.87005 17.5998C8.27005 17.5998 6.79005 17.1298 5.54005 16.3098L2.52005 17.2698L3.50005 14.3698C2.56005 13.0798 2.00005 11.4998 2.00005 9.78977C2.00005 9.53977 2.01005 9.27977 2.04005 9.02977C2.43005 5.07977 5.79005 1.98977 9.86005 1.98977C13.9301 1.98977 17.3801 5.15977 17.7001 9.17977C17.7201 9.37977 17.7301 9.57977 17.7301 9.78977C17.7301 14.0898 14.2001 17.5898 9.87005 17.5898V17.5998Z" fill="white"/>
<path fill-rule="evenodd" clip-rule="evenodd" d="M14.16 11.6696C13.93 11.5596 12.8 10.9996 12.59 10.9296C12.38 10.8496 12.23 10.8196 12.07 11.0396C11.92 11.2696 11.47 11.7796 11.34 11.9296C11.2 12.0796 11.07 12.0996 10.84 11.9896C10.61 11.8796 9.87005 11.6396 9.00005 10.8596C8.32005 10.2596 7.86005 9.51957 7.73005 9.28957C7.60005 9.05957 7.72005 8.93957 7.83005 8.82957C7.94005 8.71957 8.06005 8.55957 8.18005 8.42957C8.21005 8.38957 8.24005 8.35957 8.26005 8.31957C8.31005 8.23957 8.35005 8.15957 8.40005 8.04957C8.48005 7.89957 8.44005 7.76957 8.38005 7.64957C8.32005 7.53957 7.86005 6.41957 7.67005 5.95957C7.48005 5.49957 7.29005 5.57957 7.15005 5.57957C7.01005 5.57957 6.87005 5.55957 6.71005 5.55957C6.55005 5.55957 6.31005 5.61957 6.10005 5.83957C5.89005 6.06957 5.30005 6.61957 5.30005 7.73957C5.30005 7.99957 5.35005 8.26957 5.42005 8.50957C5.65005 9.30957 6.15005 9.96957 6.24005 10.0896C6.35005 10.2396 7.82005 12.6096 10.15 13.5296C12.48 14.4396 12.48 14.1296 12.9 14.0896C13.32 14.0496 14.26 13.5396 14.45 13.0096C14.64 12.4796 14.64 12.0196 14.59 11.9296C14.53 11.8396 14.38 11.7796 14.15 11.6696H14.16Z" fill="white"/>
</svg>
