<svg width="19" height="13" viewBox="0 0 19 13" fill="none" xmlns="http://www.w3.org/2000/svg">
<path d="M18.43 1.99979C18.22 1.21979 17.62 0.609785 16.85 0.409785C15.45 0.0297853 9.85002 0.0297852 9.85002 0.0297852C9.85002 0.0297852 4.25002 0.0297853 2.85002 0.409785C2.08002 0.619785 1.47002 1.22979 1.27002 1.99979C0.90002 3.40979 0.900024 6.33978 0.900024 6.33978C0.900024 6.33978 0.90002 9.26978 1.27002 10.6798C1.48002 11.4598 2.08002 12.0698 2.85002 12.2698C4.25002 12.6498 9.85002 12.6498 9.85002 12.6498C9.85002 12.6498 15.45 12.6498 16.85 12.2698C17.62 12.0598 18.23 11.4498 18.43 10.6798C18.8 9.26978 18.8 6.33978 18.8 6.33978C18.8 6.33978 18.8 3.40979 18.43 1.99979ZM8.01003 8.99978V3.66978L12.69 6.32978L8.01003 8.98978V8.99978Z" fill="white"/>
</svg>
